<?xml version="1.0" standalone="no"?>
<!DOCTYPE svg PUBLIC "-//W3C//DTD SVG 20010904//EN"
 "http://www.w3.org/TR/2001/REC-SVG-20010904/DTD/svg10.dtd">
<svg version="1.0" xmlns="http://www.w3.org/2000/svg"
 width="776.000000pt" height="982.000000pt" viewBox="0 0 776.000000 982.000000"
 preserveAspectRatio="xMidYMid meet">

<g transform="translate(0.000000,982.000000) scale(0.100000,-0.100000)"
fill="#000000" stroke="none">
<path d="M0 5420 l0 -4390 1535 0 1535 0 0 625 0 625 -765 0 -765 0 0 1215 0
1215 2340 0 2340 0 0 -2355 0 -2356 388 6 c213 3 559 8 770 11 l382 6 0 4379
0 4379 -1520 0 -1520 0 0 -645 0 -645 750 0 749 0 3 -737 c2 -406 2 -741 0
-745 -2 -5 -1056 -8 -2343 -8 l-2339 0 0 1905 0 1905 -770 0 -770 0 0 -4390z"/>
</g>
</svg>
